<svg width="125" height="124" viewBox="0 0 125 124" fill="none" xmlns="http://www.w3.org/2000/svg">
    <path
        d="M89.3343 0V0.08432H39.1044C38.9308 0.08432 38.7572 0.08432 38.5836 0.09424C24.2392 0.44144 22.1263 21.2685 36.2028 24.0362C37.0162 24.1899 37.8346 24.2792 38.6629 24.2742C38.7869 24.2742 65.6701 24.2742 65.7941 24.2742C65.9479 24.2742 66.0719 24.4131 66.0719 24.5867C66.0719 24.7603 65.9528 24.8992 65.7941 24.8992C65.6751 24.8992 38.7919 24.8992 38.6679 24.8992C25.3652 25.5638 18.312 41.5003 18.312 54.431V92.385C18.1335 103.277 12.4245 114.849 4.56788 121.922C3.75444 122.651 4.27523 123.995 5.36644 123.995H18.312V123.911H68.542C68.7156 123.911 68.8892 123.911 69.0628 123.901C83.4071 123.554 85.52 102.727 71.4436 99.9589C70.6301 99.8051 69.8117 99.7158 68.9834 99.7208C68.8594 99.7208 41.9762 99.7208 41.8522 99.7208C41.6984 99.7208 41.5744 99.5819 41.5744 99.4083C41.5744 99.2347 41.6935 99.0958 41.8522 99.0958C41.9712 99.0958 68.8544 99.0958 68.9784 99.0958C82.2812 98.4312 89.3343 82.4947 89.3343 69.564V31.6101C89.5128 20.7179 95.2218 9.14624 103.078 2.07328C103.892 1.34416 103.371 0 102.28 0H89.3343Z"
        fill="white" />
    <path
        d="M119.536 14.3741H99.3336C99.0807 14.3741 98.8475 14.508 98.7236 14.7312C95.7376 20.0483 93.8876 26.0797 93.7933 31.6498V69.569C93.7933 70.184 93.7784 70.804 93.7536 71.424C93.7239 72.1035 94.6861 72.2573 94.8746 71.6075C102.131 46.5546 101.972 39.437 107.265 30.0725C109.492 26.1342 113.256 20.7774 119.893 15.4008C120.314 15.0586 120.076 14.379 119.536 14.379V14.3741Z"
        fill="white" />
</svg>