<svg width="251" height="250" viewBox="0 0 251 250" fill="none" xmlns="http://www.w3.org/2000/svg">
    <path fill-rule="evenodd" clip-rule="evenodd"
        d="M179.964 0.17V0H206.064C208.264 0 209.314 2.71 207.674 4.18C191.834 18.44 180.324 41.77 179.964 63.73V140.25C179.964 166.32 165.744 198.45 138.924 199.79H84.2335C83.9135 199.79 83.6735 200.07 83.6735 200.42C83.6735 200.77 83.9235 201.05 84.2335 201.05H138.934C140.604 201.04 142.254 201.22 143.894 201.53C172.274 207.11 168.014 249.1 139.094 249.8C138.744 249.82 138.394 249.82 138.044 249.82H36.7735V249.99H10.6735C8.47354 249.99 7.42354 247.28 9.06354 245.81C24.9035 231.55 36.4135 208.22 36.7735 186.26V109.74C36.7735 83.67 50.9935 51.54 77.8135 50.2H132.504C132.824 50.2 133.064 49.92 133.064 49.57C133.064 49.22 132.814 48.94 132.504 48.94H77.8035C76.1335 48.95 74.4835 48.77 72.8435 48.46C44.4635 42.88 48.7235 0.89 77.6435 0.19C77.9935 0.17 78.3435 0.17 78.6935 0.17H179.964ZM103.492 73.194C104.755 72.2358 106.297 71.7172 107.883 71.7172C109.468 71.7172 111.01 72.2358 112.273 73.194C113.537 74.1522 114.452 75.4974 114.879 77.0242L114.905 77.1209L122.562 106.833C122.778 107.672 123.215 108.436 123.827 109.048C124.439 109.66 125.203 110.097 126.041 110.313L155.754 117.97L155.834 117.992C157.367 118.414 158.718 119.328 159.682 120.594C160.645 121.859 161.167 123.405 161.167 124.995C161.167 126.585 160.645 128.131 159.682 129.396C158.718 130.662 157.367 131.576 155.834 131.998L155.754 132.02L126.042 139.677C125.204 139.893 124.439 140.33 123.827 140.942C123.215 141.554 122.778 142.318 122.562 143.157L114.9 172.87L114.874 172.966C114.447 174.493 113.532 175.838 112.269 176.796C111.005 177.754 109.463 178.273 107.878 178.273C106.292 178.273 104.75 177.754 103.487 176.796C102.224 175.838 101.309 174.493 100.882 172.966L100.856 172.869L93.1987 143.157C92.9824 142.319 92.5454 141.553 91.9337 140.942C91.3217 140.33 90.5568 139.893 89.7188 139.677L60.0054 132.015L59.8923 131.984C58.3715 131.552 57.033 130.636 56.0798 129.375C55.1267 128.114 54.611 126.576 54.611 124.995C54.611 123.414 55.1267 121.876 56.0798 120.615C57.033 119.354 58.3715 118.438 59.8923 118.006L60.0047 117.976L89.7185 110.309C90.5563 110.093 91.3218 109.656 91.9338 109.044C92.5455 108.433 92.9823 107.669 93.199 106.832L100.861 77.1201L100.887 77.0242C101.314 75.4974 102.229 74.1523 103.492 73.194ZM153.126 75.7374C153.126 73.5171 151.327 71.7172 149.106 71.7172C146.886 71.7172 145.086 73.5171 145.086 75.7374V79.7576H141.066C138.845 79.7576 137.046 81.5575 137.046 83.7778C137.046 85.9981 138.845 87.798 141.066 87.798H145.086V91.8182C145.086 94.0385 146.886 95.8384 149.106 95.8384C151.327 95.8384 153.126 94.0385 153.126 91.8182V87.798H157.147C159.367 87.798 161.167 85.9981 161.167 83.7778C161.167 81.5575 159.367 79.7576 157.147 79.7576H153.126V75.7374ZM72.1363 153.222C74.2144 153.222 75.899 154.907 75.899 156.985C77.9771 156.985 79.6617 158.669 79.6617 160.748C79.6617 162.826 77.9771 164.51 75.899 164.51C75.899 166.588 74.2144 168.273 72.1363 168.273C70.0583 168.273 68.3737 166.588 68.3737 164.51C66.2956 164.51 64.611 162.826 64.611 160.748C64.611 158.669 66.2956 156.985 68.3737 156.985C68.3737 154.907 70.0583 153.222 72.1363 153.222Z"
        fill="#F8B43A" />
    <path
        d="M200.124 28.98H240.854V28.99C241.944 28.99 242.424 30.36 241.574 31.05C228.194 41.89 220.604 52.69 216.114 60.63C209.545 72.2526 207.141 82.1584 202.851 99.8402L202.851 99.8418C200.172 110.883 196.757 124.955 191.134 144.37C190.754 145.68 188.814 145.37 188.874 144C188.924 142.75 188.954 141.5 188.954 140.26V63.81C189.144 52.58 192.874 40.42 198.894 29.7C199.144 29.25 199.614 28.98 200.124 28.98Z"
        fill="#F8B43A" />
    <mask id="mask0_821_1368" style="mask-type:alpha" maskUnits="userSpaceOnUse" x="8" y="0" width="235" height="250">
        <path fill-rule="evenodd" clip-rule="evenodd"
            d="M179.971 0.17V0H206.071C208.271 0 209.321 2.71 207.681 4.18C191.841 18.44 180.331 41.77 179.971 63.73V140.25C179.971 166.32 165.751 198.45 138.931 199.79H84.2415C83.9215 199.79 83.6815 200.07 83.6815 200.42C83.6815 200.77 83.9315 201.05 84.2415 201.05H138.941C140.611 201.04 142.261 201.22 143.901 201.53C172.281 207.11 168.021 249.1 139.101 249.8C138.751 249.82 138.401 249.82 138.051 249.82H36.7815V249.99H10.6815C8.48147 249.99 7.43148 247.28 9.07148 245.81C24.9115 231.55 36.4215 208.22 36.7815 186.26V109.74C36.7815 83.67 51.0015 51.54 77.8215 50.2H132.511C132.831 50.2 133.071 49.92 133.071 49.57C133.071 49.22 132.821 48.94 132.511 48.94H77.8115C76.1415 48.95 74.4915 48.77 72.8515 48.46C44.4715 42.88 48.7315 0.89 77.6515 0.19C78.0015 0.17 78.3515 0.17 78.7015 0.17H179.971ZM103.5 73.194C104.763 72.2358 106.305 71.7172 107.891 71.7172C109.476 71.7172 111.018 72.2358 112.281 73.194C113.544 74.1522 114.46 75.4974 114.887 77.0242L114.913 77.1209L122.57 106.833C122.786 107.672 123.223 108.436 123.835 109.048C124.447 109.66 125.211 110.097 126.049 110.313L155.762 117.97L155.842 117.992C157.374 118.414 158.726 119.328 159.69 120.594C160.653 121.859 161.175 123.405 161.175 124.995C161.175 126.585 160.653 128.131 159.69 129.396C158.726 130.662 157.374 131.576 155.842 131.998L155.762 132.02L126.05 139.677C125.212 139.893 124.447 140.33 123.835 140.942C123.223 141.554 122.786 142.318 122.57 143.157L114.908 172.87L114.882 172.966C114.455 174.493 113.54 175.838 112.276 176.796C111.013 177.754 109.471 178.273 107.886 178.273C106.3 178.273 104.758 177.754 103.495 176.796C102.232 175.838 101.317 174.493 100.89 172.966L100.864 172.869L93.2066 143.157C92.9903 142.319 92.5533 141.553 91.9416 140.942C91.3296 140.33 90.5648 139.893 89.7267 139.677L60.0134 132.015L59.9003 131.984C58.3794 131.552 57.0409 130.636 56.0878 129.375C55.1346 128.114 54.619 126.576 54.619 124.995C54.619 123.414 55.1346 121.876 56.0878 120.615C57.0409 119.354 58.3794 118.438 59.9003 118.006L60.0126 117.976L89.7265 110.309C90.5643 110.093 91.3298 109.656 91.9417 109.044C92.5534 108.433 92.9903 107.669 93.207 106.832L100.869 77.1201L100.894 77.0242C101.322 75.4974 102.237 74.1523 103.5 73.194ZM153.134 75.7374C153.134 73.5171 151.334 71.7172 149.114 71.7172C146.894 71.7172 145.094 73.5171 145.094 75.7374V79.7576H141.074C138.853 79.7576 137.054 81.5575 137.054 83.7778C137.054 85.9981 138.853 87.798 141.074 87.798H145.094V91.8182C145.094 94.0385 146.894 95.8384 149.114 95.8384C151.334 95.8384 153.134 94.0385 153.134 91.8182V87.798H157.155C159.375 87.798 161.175 85.9981 161.175 83.7778C161.175 81.5575 159.375 79.7576 157.155 79.7576H153.134V75.7374ZM72.1443 153.222C74.2223 153.222 75.9069 154.907 75.9069 156.985C77.985 156.985 79.6696 158.669 79.6696 160.748C79.6696 162.826 77.985 164.51 75.9069 164.51C75.9069 166.588 74.2223 168.273 72.1443 168.273C70.0662 168.273 68.3816 166.588 68.3816 164.51C66.3036 164.51 64.619 162.826 64.619 160.748C64.619 158.669 66.3036 156.985 68.3816 156.985C68.3816 154.907 70.0662 153.222 72.1443 153.222Z"
            fill="#F8B43A" />
        <path
            d="M200.131 28.98H240.861V28.99C241.951 28.99 242.431 30.36 241.581 31.05C228.201 41.89 220.611 52.69 216.121 60.63C209.553 72.2526 207.149 82.1584 202.859 99.8402L202.859 99.8418C200.18 110.883 196.765 124.955 191.141 144.37C190.761 145.68 188.821 145.37 188.881 144C188.931 142.75 188.961 141.5 188.961 140.26V63.81C189.151 52.58 192.881 40.42 198.901 29.7C199.151 29.25 199.621 28.98 200.131 28.98Z"
            fill="#F8B43A" />
    </mask>
    <g mask="url(#mask0_821_1368)">
        <g filter="url(#filter0_f_821_1368)">
            <path
                d="M150.176 201.279C148.854 200.61 148.068 200.246 148.068 200.246C148.068 200.246 148.909 200.536 150.176 201.279C157.285 204.878 179.9 217.321 179.146 229.63C178.252 244.228 144.903 251.938 144.903 251.938C144.903 251.938 160.836 245.092 161.848 228.571C162.929 210.91 154.296 203.695 150.176 201.279Z"
                fill="#856326" />
        </g>
        <g style="mix-blend-mode:plus-lighter" filter="url(#filter1_f_821_1368)">
            <path
                d="M28.6625 218.816C9.82839 252.412 3.0767 246.916 3.0767 246.916L-5.18485 57.6368L69.0728 49.0022C69.0728 49.0022 51.5362 59.3785 43.1483 81.0884C27.5353 121.499 42.5289 194.081 28.6625 218.816Z"
                fill="#FFFDFA" />
        </g>
        <g style="mix-blend-mode:plus-lighter" filter="url(#filter2_f_821_1368)">
            <path
                d="M213.299 68.0903C230.879 35.2361 247.604 29.3168 247.604 29.3168L224.031 72.5083L192.117 145.615C192.117 145.615 201.627 102.53 213.299 68.0903Z"
                fill="#FFFDFA" />
        </g>
        <g style="mix-blend-mode:plus-lighter" filter="url(#filter3_f_821_1368)">
            <path
                d="M187.202 33.0907C206.036 -0.505212 212.044 5.58895 212.044 5.58895C212.044 5.58895 202.358 20.4124 195.04 35.7887C191.19 43.8794 189.235 52.6921 188.653 61.6333C186.246 98.5675 188.564 148.109 188.564 148.109L180.067 193.605L147.292 200.104C147.292 200.104 165.191 194.23 173.579 172.52C189.192 132.11 173.336 57.8253 187.202 33.0907Z"
                fill="#FFFDFA" />
        </g>
        <g style="mix-blend-mode:plus-lighter" filter="url(#filter4_f_821_1368)">
            <path d="M94.3409 48.4409L167.851 49.6604L95.0238 50.5384L52.3259 48.7909L94.3409 48.4409Z"
                fill="#FFFDFA" />
        </g>
        <g style="mix-blend-mode:plus-lighter" filter="url(#filter5_f_821_1368)">
            <path d="M125.865 199.269L52.3543 200.489L125.182 201.367L167.88 199.62L125.865 199.269Z" fill="#FFFDFA" />
        </g>
        <g filter="url(#filter6_f_821_1368)">
            <path
                d="M67.8809 49.5078C69.2182 50.1453 70.0124 50.4899 70.0124 50.4899C70.0124 50.4899 69.1653 50.2206 67.8809 49.5078C60.688 46.0787 37.784 34.1765 38.2447 21.8531C38.7911 7.23848 71.9471 -1.26273 71.9471 -1.26273C71.9471 -1.26273 56.1817 5.96071 55.5633 22.5006C54.9023 40.1828 63.7041 47.1898 67.8809 49.5078Z"
                fill="#856326" />
        </g>
        <g style="mix-blend-mode:plus-lighter" filter="url(#filter7_f_821_1368)">
            <rect x="16.4883" y="151.871" width="234.155" height="12.6336" transform="rotate(-45 16.4883 151.871)"
                fill="#FFFDFA" />
        </g>
        <g style="mix-blend-mode:plus-lighter" opacity="0.6" filter="url(#filter8_f_821_1368)">
            <rect x="16.4883" y="151.871" width="234.155" height="12.6336" transform="rotate(-45 16.4883 151.871)"
                fill="#FFFDFA" />
        </g>
        <g style="mix-blend-mode:plus-lighter" filter="url(#filter9_f_821_1368)">
            <rect x="-8.43243" y="237.193" width="344.998" height="35.7993" transform="rotate(-45 -8.43243 237.193)"
                fill="#FFFDFA" />
        </g>
        <g style="mix-blend-mode:plus-lighter" opacity="0.6" filter="url(#filter10_f_821_1368)">
            <rect x="-5.25482" y="240.371" width="344.998" height="26.8115" transform="rotate(-45 -5.25482 240.371)"
                fill="#FFFDFA" />
        </g>
    </g>
    <defs>
        <filter id="filter0_f_821_1368" x="140.903" y="196.246" width="42.2611" height="59.692"
            filterUnits="userSpaceOnUse" color-interpolation-filters="sRGB">
            <feFlood flood-opacity="0" result="BackgroundImageFix" />
            <feBlend mode="normal" in="SourceGraphic" in2="BackgroundImageFix" result="shape" />
            <feGaussianBlur stdDeviation="2" result="effect1_foregroundBlur_821_1368" />
        </filter>
        <filter id="filter1_f_821_1368" x="-9.18488" y="45.0022" width="82.2577" height="206.248"
            filterUnits="userSpaceOnUse" color-interpolation-filters="sRGB">
            <feFlood flood-opacity="0" result="BackgroundImageFix" />
            <feBlend mode="normal" in="SourceGraphic" in2="BackgroundImageFix" result="shape" />
            <feGaussianBlur stdDeviation="2" result="effect1_foregroundBlur_821_1368" />
        </filter>
        <filter id="filter2_f_821_1368" x="188.117" y="25.3168" width="63.4869" height="124.298"
            filterUnits="userSpaceOnUse" color-interpolation-filters="sRGB">
            <feFlood flood-opacity="0" result="BackgroundImageFix" />
            <feBlend mode="normal" in="SourceGraphic" in2="BackgroundImageFix" result="shape" />
            <feGaussianBlur stdDeviation="2" result="effect1_foregroundBlur_821_1368" />
        </filter>
        <filter id="filter3_f_821_1368" x="143.292" y="1.15707" width="72.7523" height="202.947"
            filterUnits="userSpaceOnUse" color-interpolation-filters="sRGB">
            <feFlood flood-opacity="0" result="BackgroundImageFix" />
            <feBlend mode="normal" in="SourceGraphic" in2="BackgroundImageFix" result="shape" />
            <feGaussianBlur stdDeviation="2" result="effect1_foregroundBlur_821_1368" />
        </filter>
        <filter id="filter4_f_821_1368" x="48.3259" y="44.4409" width="123.525" height="10.0975"
            filterUnits="userSpaceOnUse" color-interpolation-filters="sRGB">
            <feFlood flood-opacity="0" result="BackgroundImageFix" />
            <feBlend mode="normal" in="SourceGraphic" in2="BackgroundImageFix" result="shape" />
            <feGaussianBlur stdDeviation="2" result="effect1_foregroundBlur_821_1368" />
        </filter>
        <filter id="filter5_f_821_1368" x="48.3543" y="195.269" width="123.525" height="10.0975"
            filterUnits="userSpaceOnUse" color-interpolation-filters="sRGB">
            <feFlood flood-opacity="0" result="BackgroundImageFix" />
            <feBlend mode="normal" in="SourceGraphic" in2="BackgroundImageFix" result="shape" />
            <feGaussianBlur stdDeviation="2" result="effect1_foregroundBlur_821_1368" />
        </filter>
        <filter id="filter6_f_821_1368" x="34.2379" y="-5.26273" width="41.7092" height="59.7527"
            filterUnits="userSpaceOnUse" color-interpolation-filters="sRGB">
            <feFlood flood-opacity="0" result="BackgroundImageFix" />
            <feBlend mode="normal" in="SourceGraphic" in2="BackgroundImageFix" result="shape" />
            <feGaussianBlur stdDeviation="2" result="effect1_foregroundBlur_821_1368" />
        </filter>
        <filter id="filter7_f_821_1368" x="6.48834" y="-23.7014" width="194.506" height="194.506"
            filterUnits="userSpaceOnUse" color-interpolation-filters="sRGB">
            <feFlood flood-opacity="0" result="BackgroundImageFix" />
            <feBlend mode="normal" in="SourceGraphic" in2="BackgroundImageFix" result="shape" />
            <feGaussianBlur stdDeviation="5" result="effect1_foregroundBlur_821_1368" />
        </filter>
        <filter id="filter8_f_821_1368" x="-23.5117" y="-53.7014" width="254.506" height="254.506"
            filterUnits="userSpaceOnUse" color-interpolation-filters="sRGB">
            <feFlood flood-opacity="0" result="BackgroundImageFix" />
            <feBlend mode="normal" in="SourceGraphic" in2="BackgroundImageFix" result="shape" />
            <feGaussianBlur stdDeviation="20" result="effect1_foregroundBlur_821_1368" />
        </filter>
        <filter id="filter9_f_821_1368" x="-18.4324" y="-16.7575" width="289.264" height="289.264"
            filterUnits="userSpaceOnUse" color-interpolation-filters="sRGB">
            <feFlood flood-opacity="0" result="BackgroundImageFix" />
            <feBlend mode="normal" in="SourceGraphic" in2="BackgroundImageFix" result="shape" />
            <feGaussianBlur stdDeviation="5" result="effect1_foregroundBlur_821_1368" />
        </filter>
        <filter id="filter10_f_821_1368" x="-35.2548" y="-33.5799" width="322.909" height="322.909"
            filterUnits="userSpaceOnUse" color-interpolation-filters="sRGB">
            <feFlood flood-opacity="0" result="BackgroundImageFix" />
            <feBlend mode="normal" in="SourceGraphic" in2="BackgroundImageFix" result="shape" />
            <feGaussianBlur stdDeviation="15" result="effect1_foregroundBlur_821_1368" />
        </filter>
    </defs>
</svg>