<svg width="250" height="250" viewBox="0 0 250 250" fill="none" xmlns="http://www.w3.org/2000/svg">
    <path fill-rule="evenodd" clip-rule="evenodd"
        d="M179.82 0.17V0H205.92C208.12 0 209.17 2.71 207.53 4.18C191.69 18.44 180.18 41.77 179.82 63.73V140.25C179.82 166.32 165.6 198.45 138.78 199.79H84.09C83.77 199.79 83.53 200.07 83.53 200.42C83.53 200.77 83.78 201.05 84.09 201.05H138.79C140.46 201.04 142.11 201.22 143.75 201.53C172.13 207.11 167.87 249.1 138.95 249.8C138.6 249.82 138.25 249.82 137.9 249.82H36.63V249.99H10.53C8.32999 249.99 7.27999 247.28 8.91999 245.81C24.76 231.55 36.27 208.22 36.63 186.26V109.74C36.63 83.67 50.85 51.54 77.67 50.2H132.36C132.68 50.2 132.92 49.92 132.92 49.57C132.92 49.22 132.67 48.94 132.36 48.94H77.66C75.99 48.95 74.34 48.77 72.7 48.46C44.32 42.88 48.58 0.89 77.5 0.19C77.85 0.17 78.2 0.17 78.55 0.17H179.82ZM103.348 73.194C104.612 72.2358 106.154 71.7172 107.739 71.7172C109.325 71.7172 110.867 72.2358 112.13 73.194C113.393 74.1522 114.308 75.4974 114.735 77.0242L114.761 77.1209L122.418 106.833C122.635 107.672 123.071 108.436 123.683 109.048C124.295 109.66 125.059 110.097 125.897 110.313L155.611 117.97L155.69 117.992C157.223 118.414 158.575 119.328 159.538 120.594C160.502 121.859 161.023 123.405 161.023 124.995C161.023 126.585 160.502 128.131 159.538 129.396C158.575 130.662 157.223 131.576 155.69 131.998L155.611 132.02L125.898 139.677C125.06 139.893 124.295 140.33 123.683 140.942C123.071 141.554 122.635 142.318 122.418 143.157L114.756 172.87L114.73 172.966C114.303 174.493 113.388 175.838 112.125 176.796C110.862 177.754 109.32 178.273 107.734 178.273C106.149 178.273 104.607 177.754 103.344 176.796C102.08 175.838 101.165 174.493 100.738 172.966L100.712 172.869L93.0551 143.157C92.8388 142.319 92.4018 141.553 91.7901 140.942C91.1781 140.33 90.4133 139.893 89.5752 139.677L59.8619 132.015L59.7488 131.984C58.2279 131.552 56.8894 130.636 55.9363 129.375C54.9832 128.114 54.4675 126.576 54.4675 124.995C54.4675 123.414 54.9832 121.876 55.9363 120.615C56.8894 119.354 58.2279 118.438 59.7488 118.006L59.8612 117.976L89.575 110.309C90.4128 110.093 91.1783 109.656 91.7903 109.044C92.4019 108.433 92.8388 107.669 93.0555 106.832L100.717 77.1201L100.743 77.0242C101.17 75.4974 102.085 74.1523 103.348 73.194ZM152.983 75.7374C152.983 73.5171 151.183 71.7172 148.963 71.7172C146.742 71.7172 144.942 73.5171 144.942 75.7374V79.7576H140.922C138.702 79.7576 136.902 81.5575 136.902 83.7778C136.902 85.9981 138.702 87.798 140.922 87.798H144.942V91.8182C144.942 94.0385 146.742 95.8384 148.963 95.8384C151.183 95.8384 152.983 94.0385 152.983 91.8182V87.798H157.003C159.223 87.798 161.023 85.9981 161.023 83.7778C161.023 81.5575 159.223 79.7576 157.003 79.7576H152.983V75.7374ZM71.9928 153.222C74.0708 153.222 75.7554 154.907 75.7554 156.985C77.8335 156.985 79.5181 158.669 79.5181 160.748C79.5181 162.826 77.8335 164.51 75.7554 164.51C75.7554 166.588 74.0708 168.273 71.9928 168.273C69.9147 168.273 68.2301 166.588 68.2301 164.51C66.1521 164.51 64.4675 162.826 64.4675 160.748C64.4675 158.669 66.1521 156.985 68.2301 156.985C68.2301 154.907 69.9147 153.222 71.9928 153.222Z"
        fill="#ffffff" />
    <path
        d="M199.98 28.98H240.71V28.99C241.8 28.99 242.28 30.36 241.43 31.05C228.05 41.89 220.46 52.69 215.97 60.63C209.402 72.2526 206.998 82.1584 202.707 99.8402L202.707 99.8418C200.028 110.883 196.613 124.955 190.99 144.37C190.61 145.68 188.67 145.37 188.73 144C188.78 142.75 188.81 141.5 188.81 140.26V63.81C189 52.58 192.73 40.42 198.75 29.7C199 29.25 199.47 28.98 199.98 28.98Z"
        fill="#ffffff" />

</svg>