<svg width="44" height="82" viewBox="0 0 44 82" fill="none" xmlns="http://www.w3.org/2000/svg">
    <g clip-path="url(#clip0_1415_1742)">
        <path
            d="M43.1439 29.35L27.5339 2.94C26.4139 1.06 24.4339 -0.0399983 22.2339 1.72702e-06C20.0339 0.0400017 18.1639 1.32 17.0739 3.16L1.58395 29.35C0.153946 31.76 0.563946 34.96 2.81395 36.93C3.95395 37.93 5.45395 38.4 6.97395 38.4H8.20395C8.54395 38.4 8.81395 38.67 8.81395 39.01V75.51C8.81395 78.82 11.5039 81.51 14.8139 81.51H29.9339C33.2439 81.51 35.9339 78.82 35.9339 75.51V39.01C35.9339 38.67 36.2039 38.4 36.5439 38.4H37.7739C39.2839 38.4 40.7939 37.93 41.9339 36.93C44.1839 34.95 44.5939 31.76 43.1639 29.35H43.1439ZM41.2839 34.66C40.5139 35.8 39.1739 36.41 37.8039 36.41H35.5339C34.6439 36.41 33.9239 37.13 33.9239 38.02V75.52C33.9239 77.73 32.1339 79.52 29.9239 79.52H14.8039C12.5939 79.52 10.8039 77.73 10.8039 75.52V38.02C10.8039 37.13 10.0839 36.41 9.19395 36.41H6.92395C5.55395 36.41 4.21395 35.8 3.44395 34.66C2.55395 33.34 2.51395 31.71 3.30395 30.37L18.8339 4.12C19.5139 2.96 20.6939 2.12 22.0239 2.01C23.5839 1.88 25.0239 2.63 25.8039 3.96L41.4239 30.37C42.2139 31.71 42.1739 33.35 41.2839 34.66Z"
            fill="url(#paint0_linear_1415_1742)" fill-opacity="0.5" />
        <path
            d="M22.2377 0.200119C24.2334 0.163882 26.0395 1.09592 27.1498 2.71086L27.3618 3.04192L42.9721 29.4521L43.0297 29.5497H43.0473C44.3199 31.7933 43.9723 34.6998 42.0004 36.5966L41.8022 36.7792C40.7049 37.7417 39.2443 38.2001 37.7739 38.2001H36.5444C36.094 38.2001 35.734 38.5594 35.7338 39.0097V75.5097C35.7338 78.7092 33.1335 81.3104 29.934 81.3105H14.8139C11.6144 81.3104 9.0141 78.7092 9.0141 75.5097V39.0097C9.01393 38.5594 8.6539 38.2001 8.20355 38.2001H6.97406C5.58624 38.2001 4.2247 37.7975 3.1557 36.954L2.94574 36.7792C0.838265 34.9339 0.400259 31.9736 1.63129 29.6728L1.75629 29.4521L17.2465 3.26164L17.2455 3.26067C18.2399 1.58267 19.8946 0.394283 21.8442 0.220627L22.2377 0.200119ZM22.0073 1.81047C20.6907 1.91942 19.5242 2.70409 18.8002 3.7968L18.6616 4.01848L3.13226 30.2685H3.13129C2.35402 31.587 2.3432 33.1751 3.11371 34.5087L3.27777 34.7714V34.7724C4.09038 35.9754 5.49814 36.6103 6.92426 36.6103H9.19379C9.97333 36.6103 10.6039 37.2409 10.6039 38.0204V75.5204C10.6042 77.8407 12.4838 79.7197 14.8041 79.7197H29.9243C32.2444 79.7195 34.1232 77.8406 34.1235 75.5204V38.0204C34.1235 37.241 34.7542 36.6104 35.5336 36.6103H37.8041C39.141 36.6102 40.4611 36.052 41.2905 34.9911L41.4496 34.7724C42.3249 33.484 42.4164 31.889 41.7416 30.5361L41.5961 30.2685L25.976 3.85832H25.975C25.2071 2.54961 23.8299 1.77527 22.3129 1.79582L22.0073 1.81047Z"
            stroke="url(#paint1_linear_1415_1742)" stroke-opacity="0.5" stroke-width="0.4" />
        <path
            d="M20.8168 5.08148C21.4879 3.93991 23.1135 3.90376 23.8442 4.97406L23.9116 5.08148L39.5219 31.4916C40.2334 32.6986 39.3687 34.2103 37.9741 34.2104H33.9243C32.7139 34.2104 31.7243 35.1993 31.7241 36.4096V75.52C31.7241 76.5094 30.9137 77.3196 29.9243 77.3198H14.8041C13.8146 77.3198 13.0043 76.5095 13.0043 75.52V36.4096C13.0041 35.1994 12.0144 34.2105 10.8041 34.2104H6.75433C5.40293 34.2104 4.54944 32.7822 5.14398 31.6049L5.20551 31.4926L5.20648 31.4916L20.8159 5.08148H20.8168Z"
            fill="url(#paint2_linear_1415_1742)" fill-opacity="0.5" stroke="url(#paint3_linear_1415_1742)"
            stroke-width="0.4" />
    </g>
    <defs>
        <linearGradient id="paint0_linear_1415_1742" x1="1.19413" y1="0.715943" x2="57.9863" y2="30.8479"
            gradientUnits="userSpaceOnUse">
            <stop offset="0.589914" stop-color="white" stop-opacity="0" />
            <stop offset="0.974169" stop-color="white" />
        </linearGradient>
        <linearGradient id="paint1_linear_1415_1742" x1="1.19413" y1="0.715943" x2="57.9863" y2="30.8479"
            gradientUnits="userSpaceOnUse">
            <stop offset="0.589914" stop-color="white" stop-opacity="0" />
            <stop offset="0.974169" stop-color="white" />
        </linearGradient>
        <linearGradient id="paint2_linear_1415_1742" x1="5.1128" y1="4.64422" x2="53.3253" y2="27.7432"
            gradientUnits="userSpaceOnUse">
            <stop offset="0.301666" stop-color="white" stop-opacity="0" />
            <stop offset="0.796666" stop-color="white" />
        </linearGradient>
        <linearGradient id="paint3_linear_1415_1742" x1="34.9693" y1="67.7154" x2="-9.76334" y2="42.5972"
            gradientUnits="userSpaceOnUse">
            <stop offset="0.206666" stop-color="white" />
            <stop offset="0.716666" stop-color="white" stop-opacity="0" />
        </linearGradient>
        <clipPath id="clip0_1415_1742">
            <rect width="43.23" height="81.52" fill="white" transform="translate(0.753967)" />
        </clipPath>
    </defs>
</svg>