<svg width="44" height="82" viewBox="0 0 44 82" fill="none" xmlns="http://www.w3.org/2000/svg">
    <g clip-path="url(#clip0_1155_178)">
        <path
            d="M42.3901 29.35L26.7801 2.94002C25.6601 1.06002 23.6801 -0.039983 21.4801 1.69858e-05C19.2801 0.040017 17.4101 1.32002 16.3201 3.16002L0.830101 29.35C-0.599899 31.76 -0.189899 34.96 2.0601 36.93C3.2001 37.93 4.7001 38.4 6.2201 38.4H7.4501C7.7901 38.4 8.0601 38.67 8.0601 39.01V75.51C8.0601 78.82 10.7501 81.51 14.0601 81.51H29.1801C32.4901 81.51 35.1801 78.82 35.1801 75.51V39.01C35.1801 38.67 35.4501 38.4 35.7901 38.4H37.0201C38.5301 38.4 40.0401 37.93 41.1801 36.93C43.4301 34.95 43.8401 31.76 42.4101 29.35H42.3901ZM40.5301 34.66C39.7601 35.8 38.4201 36.41 37.0501 36.41H34.7801C33.8901 36.41 33.1701 37.13 33.1701 38.02V75.52C33.1701 77.73 31.3801 79.52 29.1701 79.52H14.0501C11.8401 79.52 10.0501 77.73 10.0501 75.52V38.02C10.0501 37.13 9.3301 36.41 8.4401 36.41H6.1701C4.8001 36.41 3.4601 35.8 2.6901 34.66C1.8001 33.34 1.7601 31.71 2.5501 30.37L18.0801 4.12002C18.7601 2.96002 19.9401 2.12002 21.2701 2.01002C22.8301 1.88002 24.2701 2.63002 25.0501 3.96002L40.6701 30.37C41.4601 31.71 41.4201 33.35 40.5301 34.66Z"
            fill="url(#paint0_linear_1155_178)" fill-opacity="0.5" />
        <path
            d="M42.276 29.55L42.2179 29.4518L26.6083 3.04238L42.276 29.55ZM42.276 29.55H42.2949M42.276 29.55H42.2949M42.2949 29.55C43.6086 31.8668 43.194 34.8912 41.0482 36.7797C39.9509 37.7422 38.4906 38.2 37.0201 38.2H35.7901C35.3396 38.2 34.9801 38.5596 34.9801 39.01V75.51C34.9801 78.7096 32.3796 81.31 29.1801 81.31H14.0601C10.8606 81.31 8.2601 78.7096 8.2601 75.51V39.01C8.2601 38.5596 7.90056 38.2 7.4501 38.2H6.2201C4.7398 38.2 3.28937 37.7423 2.19199 36.7797L2.19185 36.7795C0.016199 34.8746 -0.37998 31.7813 1.0021 29.4521L1.00225 29.4518L16.4922 3.26195C17.5526 1.4718 19.3638 0.238529 21.4837 0.199984C23.6121 0.161287 25.5248 1.22408 26.6079 3.04178L42.2949 29.55ZM2.52437 34.772L2.52427 34.7718C1.59119 33.3879 1.54863 31.6749 2.37781 30.2684L2.37797 30.2682L17.9076 4.01887C17.9077 4.01866 17.9078 4.01845 17.9079 4.01824C18.6159 2.811 19.8496 1.92682 21.2536 1.8107C22.8896 1.67441 24.4031 2.46195 25.2223 3.85827L25.2222 3.8582L25.0501 3.96L25.2226 3.85884L2.52437 34.772ZM2.52437 34.772C3.33697 35.975 4.74395 36.61 6.1701 36.61H8.4401C9.21964 36.61 9.8501 37.2405 9.8501 38.02V75.52C9.8501 77.8405 11.7296 79.72 14.0501 79.72H29.1701C31.4906 79.72 33.3701 77.8405 33.3701 75.52V38.02C33.3701 37.2405 34.0006 36.61 34.7801 36.61H37.0501C38.4762 36.61 39.8832 35.975 40.6958 34.772H2.52437Z"
            stroke="url(#paint1_linear_1155_178)" stroke-opacity="0.5" stroke-width="0.4" />
        <path
            d="M23.1575 5.08134L23.1577 5.08176L38.7676 31.4916C39.4792 32.6986 38.6147 34.21 37.2199 34.21H33.1699C31.9594 34.21 30.9699 35.1995 30.9699 36.41V75.52C30.9699 76.5095 30.1594 77.32 29.1699 77.32H14.0499C13.0604 77.32 12.2499 76.5095 12.2499 75.52V36.41C12.2499 35.1995 11.2604 34.21 10.0499 34.21H5.99989C4.60501 34.21 3.74101 32.6889 4.45185 31.4921L4.45207 31.4918L20.0621 5.08176L20.0623 5.08134C20.755 3.90288 22.4648 3.90288 23.1575 5.08134Z"
            fill="url(#paint2_linear_1155_178)" fill-opacity="0.5" stroke="url(#paint3_linear_1155_178)"
            stroke-width="0.4" />
    </g>
    <defs>
        <linearGradient id="paint0_linear_1155_178" x1="0.440282" y1="0.715958" x2="57.2324" y2="30.8479"
            gradientUnits="userSpaceOnUse">
            <stop offset="0.589914" stop-color="white" stop-opacity="0" />
            <stop offset="0.974169" stop-color="white" />
        </linearGradient>
        <linearGradient id="paint1_linear_1155_178" x1="0.440282" y1="0.715958" x2="57.2324" y2="30.8479"
            gradientUnits="userSpaceOnUse">
            <stop offset="0.589914" stop-color="white" stop-opacity="0" />
            <stop offset="0.974169" stop-color="white" />
        </linearGradient>
        <linearGradient id="paint2_linear_1155_178" x1="4.35871" y1="4.64422" x2="52.5712" y2="27.7432"
            gradientUnits="userSpaceOnUse">
            <stop offset="0.301666" stop-color="white" stop-opacity="0" />
            <stop offset="0.796666" stop-color="white" />
        </linearGradient>
        <linearGradient id="paint3_linear_1155_178" x1="34.2152" y1="67.7154" x2="-10.5174" y2="42.5972"
            gradientUnits="userSpaceOnUse">
            <stop offset="0.206666" stop-color="white" />
            <stop offset="0.716666" stop-color="white" stop-opacity="0" />
        </linearGradient>
        <clipPath id="clip0_1155_178">
            <rect width="43.23" height="81.52" fill="white" />
        </clipPath>
    </defs>
</svg>