<svg width="240" height="240" viewBox="0 0 240 240" fill="none" xmlns="http://www.w3.org/2000/svg">
    <rect width="240" height="240" rx="40" fill="#eaeaea" />
    <path
        d="M147.191 58V58.0843H96.9607C96.7871 58.0843 96.6135 58.0843 96.4399 58.0942C82.0956 58.4414 79.9827 79.2685 94.0591 82.0362C94.8726 82.1899 95.691 82.2792 96.5193 82.2742C96.6433 82.2742 123.526 82.2742 123.65 82.2742C123.804 82.2742 123.928 82.4131 123.928 82.5867C123.928 82.7603 123.809 82.8992 123.65 82.8992C123.531 82.8992 96.6483 82.8992 96.5243 82.8992C83.2215 83.5638 76.1684 99.5003 76.1684 112.431V150.385C75.9899 161.277 70.2809 172.849 62.4243 179.922C61.6108 180.651 62.1316 181.995 63.2228 181.995H76.1684V181.911H126.398C126.572 181.911 126.746 181.911 126.919 181.901C141.263 181.554 143.376 160.727 129.3 157.959C128.486 157.805 127.668 157.716 126.84 157.721C126.716 157.721 99.8326 157.721 99.7086 157.721C99.5548 157.721 99.4308 157.582 99.4308 157.408C99.4308 157.235 99.5499 157.096 99.7086 157.096C99.8276 157.096 126.711 157.096 126.835 157.096C140.138 156.431 147.191 140.495 147.191 127.564V89.6101C147.369 78.7179 153.078 67.1462 160.935 60.0733C161.748 59.3442 161.227 58 160.136 58H147.191Z"
        fill="#0033ff" />
    <path
        d="M177.392 72.3741H157.19C156.937 72.3741 156.704 72.508 156.58 72.7312C153.594 78.0483 151.744 84.0797 151.65 89.6498V127.569C151.65 128.184 151.635 128.804 151.61 129.424C151.58 130.104 152.542 130.257 152.731 129.608C159.987 104.555 159.829 97.437 165.121 88.0725C167.348 84.1342 171.113 78.7774 177.749 73.4008C178.171 73.0586 177.933 72.379 177.392 72.379V72.3741Z"
        fill="#49ac6d" />
</svg>